<?xml version="1.0" encoding="UTF-8"?><svg id="b" xmlns="http://www.w3.org/2000/svg" viewBox="0 0 34.36523 15.51562"><defs><style>.d{fill:#fff;}</style></defs><g id="c"><g><path class="d" d="M6.41895,1.67285l2.02148,2.56934-1.88477,1.27051c.53613,.32324,.96582,.70459,1.28906,1.14404,.32227,.43945,.57422,1.00635,.75391,1.70166,.08203,.33594,.16602,.58203,.25195,.73828,.05859,.10156,.16895,.22168,.3291,.36084l.58496-.49561,.20215,.21094-1.4209,1.20703c-.28516-.17969-.49121-.37109-.61621-.57422-.08984-.13672-.25391-.59961-.49219-1.38867-.12891-.41797-.29297-.77539-.49219-1.07227-.2002-.29688-.41113-.52051-.63379-.6709s-.52441-.28711-.90332-.41064l-.39258,.26172v2.43652c.35547,.11719,.73145,.28369,1.12695,.49902l.60645-.53662,.18848,.20508-1.52344,1.25098c-.55469-.28125-1.03516-.47852-1.44336-.5918s-.81934-.16992-1.23242-.16992c-.51953,0-1.01953,.08594-1.49902,.25781-.25391,.09375-.53711,.26172-.84961,.50391l-.16113-.14062c.3877-.49609,.77832-.86133,1.17188-1.0957s.87598-.39258,1.44727-.47461v-.26367c0-.37891-.04883-.68848-.14648-.92871-.09863-.24023-.27637-.49219-.53516-.75586s-.53027-.47949-.81641-.64746c-.18359-.10547-.44238-.21094-.77539-.31641v-.24023c.31738-.11719,.70703-.33203,1.16895-.64453l1.10449-.73828c0-.50391-.03516-.86426-.10547-1.08105s-.20801-.39746-.41113-.54199c-.2041-.14453-.43066-.2168-.68164-.2168-.15332,0-.29199,.02344-.41699,.07031-.12598,.04688-.28027,.13477-.46484,.26367l-.19336-.14062c.30469-.3125,.5791-.52441,.82324-.63574s.5459-.16699,.90527-.16699c.40234,0,.7373,.08008,1.00488,.24023s.46777,.37891,.60059,.65625c.07812,.16797,.12305,.41016,.13477,.72656l2.37598-1.63477Zm-3.57129,2.78906l-1.30664,.87891c.24707,.11719,.45215,.23438,.61523,.35156,.16211,.11719,.39355,.3125,.69141,.58594v-1.81641Zm1.89844-1.31201l-.70312,.4834v5.07666c.23438,.03564,.46875,.08887,.70312,.15967V3.1499Zm.8877-.61084l-.61816,.42529v3.23779l2.29395-1.5293-1.67578-2.13379Z"/><path class="d" d="M11.65137,4.13379l1.04004,.86426-.46289,.44824v3.1875c0,.33594,.02832,.55469,.08496,.65625,.05566,.10156,.11426,.15234,.1748,.15234,.04199,0,.08105-.00977,.11621-.0293,.04883-.02734,.15137-.10547,.30664-.23438l.14355,.18164-1.25684,1.01953c-.31348-.22266-.51562-.43262-.60547-.62988-.09082-.19727-.13574-.54199-.13574-1.03418v-3.26953l-.43945-.44824,1.03418-.86426Zm.44238-2.00391h.74414l-.80859,1.26562h-.23438l.29883-1.26562Z"/><path class="d" d="M15.80566,4.13379l1.52051,.87012-.62402,.91113-1.14551-.66211v3.73828l1.15332,.51514,.61328-.44385,.06152,.25098-1.4502,1.06641c-.37402-.21094-.69434-.36621-.95996-.46582-.26465-.09961-.59082-.18652-.97656-.26074v-.14062c.13672-.09375,.22656-.19531,.26953-.30469,.0625-.15234,.09375-.39062,.09375-.71484v-3.33398c.4873-.22266,.96875-.56445,1.44434-1.02539Z"/><path class="d" d="M20.44922,4.13379l1.65234,1.92773-2.625,1.83984v1.06641l1.35938,.53906,.91992-.62695,.12891,.17578-1.89551,1.32422c-.3877-.20703-.70605-.35547-.95605-.44531-.25098-.08984-.60645-.18359-1.06836-.28125v-.14648c.13281-.07812,.22168-.1748,.2666-.29004s.06738-.36426,.06738-.74707v-3.35156c.36719-.13281,.67188-.25391,.91406-.36328,.17578-.08203,.58789-.28906,1.23633-.62109Zm-.89062,.67383l-.08203,.04102v2.66064l1.54297-1.08203-1.46094-1.61963Z"/><path class="d" d="M22.49414,4.77295l1.63477-2.01611h.16992l-.05859,1.61719h1.17773v.65625h-1.17773v3.94922l.65625,.48633,.375-.29297,.14648,.17578-1.29199,1.03125c-.43848-.44922-.93555-.75391-1.49121-.91406v-.11719c.15625-.10547,.25977-.21484,.31055-.32861,.06641-.14453,.09961-.354,.09961-.62793v-3.36182h-.55078v-.25732Z"/><path class="d" d="M25.86328,4.77295l1.63477-2.01611h.16992l-.05859,1.61719h1.17773v.65625h-1.17773v3.94922l.65625,.48633,.375-.29297,.14648,.17578-1.29199,1.03125c-.43848-.44922-.93555-.75391-1.49121-.91406v-.11719c.15625-.10547,.25977-.21484,.31055-.32861,.06641-.14453,.09961-.354,.09961-.62793v-3.36182h-.55078v-.25732Z"/><path class="d" d="M33.57422,4.38574l.21094,.08203c-.21094,.32812-.34473,.5791-.40137,.75293s-.08496,.40918-.08496,.70605v2.49609c0,.41406,.0293,.67285,.08789,.77637s.12891,.15527,.21094,.15527c.04297,0,.08691-.01123,.13281-.03369,.02832-.01807,.1123-.08545,.25098-.20068l.14355,.18164-1.24512,1.07812c-.30176-.23438-.50391-.44434-.60547-.62988-.10254-.18555-.15918-.44434-.1709-.77637l-1.77832,1.40625c-.66992-.54785-1.00488-1.0874-1.00488-1.61963,0-.35596,.07227-.69043,.21777-1.00342,.19238-.41064,.52344-.89014,.99414-1.4375l-.70508-1.50635,.08203-.15186c.15137,.01172,.26465,.01758,.33887,.01758,.45996,0,.86523-.18164,1.21582-.54492,.28418,.16602,.5957,.2998,.93262,.3999,.33691,.10059,.59473,.15088,.77441,.15088,.08203,0,.14453-.01416,.18652-.04297,.04297-.02881,.11523-.11426,.2168-.25586Zm-1.4707,1.11377l-2.00391-.61523,.71289,1.50977,1.29102,.60596v-1.50049Zm0,1.74561l-1.41797-.66553c-.21875,.47705-.32812,.896-.32812,1.25537,0,.63379,.28711,1.15625,.86133,1.56689l.88477-.71436v-1.44238Z"/></g><g><path class="d" d="M1.37695,12.00146l.76611,.3457-.31445,.3623-.57715-.26318v1.48633l.58105,.20508,.30859-.17578,.03125,.09961-.73047,.42383c-.18848-.08398-.34961-.14551-.4834-.18555-.1333-.03906-.29736-.07422-.4917-.10352v-.05566c.06885-.03711,.11377-.07812,.13574-.12109,.03125-.06055,.04688-.15527,.04688-.28418v-1.32617c.24561-.08887,.48828-.22461,.72754-.40771Z"/><path class="d" d="M4.48193,12.00146l.52637,.3457-.23877,.17139v1.22363c0,.1416,.0249,.24219,.0752,.30273,.03223,.04199,.06738,.0625,.10547,.0625,.02832,0,.08252-.02441,.16309-.07422l.07227,.07227-.62695,.37988c-.15674-.08691-.25928-.16504-.30713-.23438-.04834-.06934-.07422-.17871-.07812-.3291-.30518,.1543-.6167,.34277-.93408,.56348-.19043-.11816-.31494-.22168-.37354-.31152-.05908-.08887-.08838-.20703-.08838-.35254v-1.15137c0-.08057-.00928-.1333-.02734-.1582-.03223-.04346-.07568-.06543-.13086-.06543-.04102,0-.10303,.02637-.18555,.0791l-.07227-.07227,.69775-.45166,.53564,.3457-.22119,.15527v1.23877c0,.0918,.01465,.15918,.04443,.20215,.0293,.04297,.10107,.09668,.21484,.16211l.54053-.31445v-1.27246l-.20947-.17139,.51807-.3457Z"/><path class="d" d="M6.4707,12.00146l.76611,.3457-.31445,.3623-.57715-.26318v1.48633l.58105,.20508,.30859-.17578,.03125,.09961-.73047,.42383c-.18848-.08398-.34961-.14551-.4834-.18555-.1333-.03906-.29736-.07422-.4917-.10352v-.05566c.06885-.03711,.11377-.07812,.13574-.12109,.03125-.06055,.04688-.15527,.04688-.28418v-1.32617c.24561-.08887,.48828-.22461,.72754-.40771Z"/><path class="d" d="M8.08789,12.00146l.52393,.34375-.23291,.17822v1.26758c0,.13379,.01416,.2207,.04248,.26074,.02832,.04102,.05762,.06055,.08789,.06055,.02148,0,.04102-.00391,.05859-.01172,.0249-.01074,.07666-.04199,.15479-.09277l.07227,.07227-.63281,.40527c-.1582-.08887-.25977-.17188-.30518-.25098-.0459-.07812-.06836-.21484-.06836-.41113v-1.2998l-.22119-.17822,.52051-.34375Zm.22314-.79736h.37451l-.40723,.50342h-.11816l.15088-.50342Z"/><path class="d" d="M11.07178,12.00146l.40283,.34912,.2876-.21875,.08398,.06299c-.13916,.09961-.22314,.17529-.25342,.22656-.03955,.06885-.05957,.16309-.05957,.2832v1.11084c0,.10254,.021,.17969,.0625,.22949,.02539,.03223,.0542,.04883,.08594,.04883,.02783,0,.09277-.03027,.1958-.09082l.07227,.07227-.6333,.41016c-.16357-.09766-.26904-.18359-.31543-.25781-.04639-.0752-.06934-.19531-.06934-.3623v-1.27539l-.26123-.21729-.50342,.31885v1.29297l.22119,.16699-.52051,.33398-.52393-.33398,.22119-.16699v-1.18896c0-.16895-.02148-.2832-.06494-.34229-.02979-.04004-.06348-.06055-.10107-.06055-.03955,0-.09863,.03027-.17773,.09082l-.07227-.07178,.62695-.41016c.17383,.10205,.28271,.18262,.32617,.24219,.04346,.05908,.06494,.1416,.06494,.24707v.08398l.90479-.57324Z"/><path class="d" d="M14.41064,12.10156l.10645,.03271c-.10645,.13037-.17383,.22998-.20215,.29932-.02832,.06885-.04297,.1626-.04297,.28076v.99268c0,.16504,.01514,.26758,.04443,.30859,.02979,.04102,.06494,.06152,.10596,.06152,.02148,0,.04395-.00391,.06738-.0127,.01416-.00781,.05615-.03418,.12646-.08008l.07227,.07227-.62744,.42871c-.15186-.09277-.25391-.17676-.30518-.25098-.05127-.07324-.08008-.17578-.08594-.30859l-.89551,.55957c-.3374-.21777-.50586-.43262-.50586-.64453,0-.1416,.03613-.27441,.10938-.39844,.09668-.16357,.26367-.354,.50049-.57178l-.35498-.59912,.0415-.06055c.07617,.00488,.1333,.00684,.17041,.00684,.23193,0,.43604-.07227,.61279-.21631,.14307,.06592,.2998,.11914,.46924,.15869,.16992,.04004,.2998,.06006,.39014,.06006,.0415,0,.07275-.00537,.09424-.01709,.02148-.01123,.05811-.04541,.10889-.10156Zm-.74072,.44287l-1.00928-.24463,.35938,.6001,.6499,.24121v-.59668Zm0,.69434l-.71387-.26465c-.11035,.18945-.16553,.35596-.16553,.49951,0,.25195,.14502,.45898,.43408,.62305l.44531-.28418v-.57373Z"/><path class="d" d="M17.11816,12.00146l.52393,.34375-.23291,.17822v1.26758c0,.13379,.01416,.2207,.04248,.26074,.02832,.04102,.05762,.06055,.08789,.06055,.02148,0,.04102-.00391,.05859-.01172,.0249-.01074,.07666-.04199,.15479-.09277l.07227,.07227-.63281,.40527c-.1582-.08887-.25977-.17188-.30518-.25098-.0459-.07812-.06836-.21484-.06836-.41113v-1.2998l-.22119-.17822,.52051-.34375Zm.22314-.79736h.37451l-.40723,.50342h-.11816l.15088-.50342Z"/><path class="d" d="M18.17383,12.25537l.82324-.80176h.08545l-.0293,.64307h.59326v.26123h-.59326v1.5708l.33057,.19336,.18896-.11719,.07373,.07031-.65088,.41016c-.22119-.17871-.47119-.2998-.75098-.36328v-.04688c.07861-.04199,.13086-.08594,.15625-.13086,.03369-.05762,.05029-.14062,.05029-.24902v-1.3374h-.27734v-.10254Z"/><path class="d" d="M22.05713,12.10156l.10645,.03271c-.10645,.13037-.17383,.22998-.20215,.29932-.02832,.06885-.04297,.1626-.04297,.28076v.99268c0,.16504,.01514,.26758,.04443,.30859,.02979,.04102,.06494,.06152,.10596,.06152,.02148,0,.04395-.00391,.06738-.0127,.01416-.00781,.05615-.03418,.12646-.08008l.07227,.07227-.62744,.42871c-.15186-.09277-.25391-.17676-.30518-.25098-.05127-.07324-.08008-.17578-.08594-.30859l-.89551,.55957c-.3374-.21777-.50586-.43262-.50586-.64453,0-.1416,.03613-.27441,.10938-.39844,.09668-.16357,.26367-.354,.50049-.57178l-.35498-.59912,.0415-.06055c.07617,.00488,.1333,.00684,.17041,.00684,.23193,0,.43604-.07227,.61279-.21631,.14307,.06592,.2998,.11914,.46924,.15869,.16992,.04004,.2998,.06006,.39014,.06006,.0415,0,.07275-.00537,.09424-.01709,.02148-.01123,.05811-.04541,.10889-.10156Zm-.74072,.44287l-1.00928-.24463,.35938,.6001,.6499,.24121v-.59668Zm0,.69434l-.71387-.26465c-.11035,.18945-.16553,.35596-.16553,.49951,0,.25195,.14502,.45898,.43408,.62305l.44531-.28418v-.57373Z"/><path class="d" d="M23.93701,11.146v.06055c-.15527,.06396-.26514,.14209-.3291,.23438s-.0957,.23242-.0957,.42041v2.07129l.33643,.19824,.12988-.08398,.07373,.08398-.5918,.35449c-.17871-.12305-.31201-.2041-.40039-.24512-.08838-.04004-.20557-.07617-.35059-.10938v-.05078c.05518-.02637,.09766-.05957,.12842-.10059,.03027-.04004,.05127-.08789,.06348-.1416,.00391-.01855,.00684-.1123,.00879-.28027v-1.66357c0-.14111-.00684-.23975-.021-.29492-.01367-.05518-.04102-.10791-.08252-.1582-.04102-.05078-.11084-.10693-.20947-.16895l.04736-.04688c.17969,.04053,.34033,.12305,.48242,.24707,.14746-.12256,.28027-.20654,.39893-.25146,.11914-.04492,.25586-.06982,.41113-.07471Z"/><path class="d" d="M24.91846,12.00146l.52393,.34375-.23291,.17822v1.26758c0,.13379,.01416,.2207,.04248,.26074,.02832,.04102,.05762,.06055,.08789,.06055,.02148,0,.04102-.00391,.05859-.01172,.0249-.01074,.07666-.04199,.15479-.09277l.07227,.07227-.63281,.40527c-.1582-.08887-.25977-.17188-.30518-.25098-.0459-.07812-.06836-.21484-.06836-.41113v-1.2998l-.22119-.17822,.52051-.34375Zm.22314-.79736h.37451l-.40723,.50342h-.11816l.15088-.50342Z"/><path class="d" d="M28.16016,12.10156l.10645,.03271c-.10645,.13037-.17383,.22998-.20215,.29932-.02832,.06885-.04297,.1626-.04297,.28076v.99268c0,.16504,.01514,.26758,.04443,.30859,.02979,.04102,.06494,.06152,.10596,.06152,.02148,0,.04395-.00391,.06738-.0127,.01416-.00781,.05615-.03418,.12646-.08008l.07227,.07227-.62744,.42871c-.15186-.09277-.25391-.17676-.30518-.25098-.05127-.07324-.08008-.17578-.08594-.30859l-.89551,.55957c-.3374-.21777-.50586-.43262-.50586-.64453,0-.1416,.03613-.27441,.10938-.39844,.09668-.16357,.26367-.354,.50049-.57178l-.35498-.59912,.0415-.06055c.07617,.00488,.1333,.00684,.17041,.00684,.23193,0,.43604-.07227,.61279-.21631,.14307,.06592,.2998,.11914,.46924,.15869,.16992,.04004,.2998,.06006,.39014,.06006,.0415,0,.07275-.00537,.09424-.01709,.02148-.01123,.05811-.04541,.10889-.10156Zm-.74072,.44287l-1.00928-.24463,.35938,.6001,.6499,.24121v-.59668Zm0,.69434l-.71387-.26465c-.11035,.18945-.16553,.35596-.16553,.49951,0,.25195,.14502,.45898,.43408,.62305l.44531-.28418v-.57373Z"/><path class="d" d="M30.61133,12.00146l.40283,.34912,.2876-.21875,.08398,.06299c-.13916,.09961-.22314,.17529-.25342,.22656-.03955,.06885-.05957,.16309-.05957,.2832v1.11084c0,.10254,.021,.17969,.0625,.22949,.02539,.03223,.0542,.04883,.08594,.04883,.02783,0,.09277-.03027,.1958-.09082l.07227,.07227-.6333,.41016c-.16357-.09766-.26904-.18359-.31543-.25781-.04639-.0752-.06934-.19531-.06934-.3623v-1.27539l-.26123-.21729-.50342,.31885v1.29297l.22119,.16699-.52051,.33398-.52393-.33398,.22119-.16699v-1.18896c0-.16895-.02148-.2832-.06494-.34229-.02979-.04004-.06348-.06055-.10107-.06055-.03955,0-.09863,.03027-.17773,.09082l-.07227-.07178,.62695-.41016c.17383,.10205,.28271,.18262,.32617,.24219,.04346,.05908,.06494,.1416,.06494,.24707v.08398l.90479-.57324Z"/><path class="d" d="M33.95068,12.10156l.10547,.03271c-.10547,.13037-.17383,.22998-.20117,.29932-.0293,.06885-.04297,.1626-.04297,.28076v.99268c0,.16504,.01367,.26758,.04492,.30859,.0293,.04102,.06445,.06152,.10547,.06152,.02148,0,.04297-.00391,.06641-.0127,.01562-.00781,.05664-.03418,.12695-.08008l.07227,.07227-.62695,.42871c-.15234-.09277-.25439-.17676-.30566-.25098-.05127-.07324-.08008-.17578-.08594-.30859l-.89551,.55957c-.3374-.21777-.50586-.43262-.50586-.64453,0-.1416,.03613-.27441,.10938-.39844,.09668-.16357,.26367-.354,.50049-.57178l-.35498-.59912,.0415-.06055c.07617,.00488,.1333,.00684,.17041,.00684,.23193,0,.43604-.07227,.61279-.21631,.14307,.06592,.2998,.11914,.46924,.15869,.16992,.04004,.30078,.06006,.39062,.06006,.04102,0,.07227-.00537,.09375-.01709,.02148-.01123,.05859-.04541,.10938-.10156Zm-.74121,.44287l-1.00928-.24463,.35938,.6001,.6499,.24121v-.59668Zm0,.69434l-.71387-.26465c-.11035,.18945-.16553,.35596-.16553,.49951,0,.25195,.14502,.45898,.43408,.62305l.44531-.28418v-.57373Z"/></g></g></svg>